<!DOCTYPE svg PUBLIC "-//W3C//DTD SVG 1.1//EN" "http://www.w3.org/Graphics/SVG/1.1/DTD/svg11.dtd">
<!-- Uploaded to: SVG Repo, www.svgrepo.com, Transformed by: SVG Repo Mixer Tools -->
<svg height="800px" width="800px" version="1.1" id="Layer_1" xmlns="http://www.w3.org/2000/svg" xmlns:xlink="http://www.w3.org/1999/xlink" viewBox="-122.88 -122.88 757.76 757.76" xml:space="preserve" fill="#ffffff" stroke="#ffffff" stroke-width="0.00512">
<g id="SVGRepo_bgCarrier" stroke-width="0" transform="translate(0,0), scale(1)">
<path transform="translate(-122.88, -122.88), scale(23.68)" d="M16,29.15204952036341C17.84851041062198,28.528231836526626,18.855093220647948,26.338805142319956,20.744133302034783,25.8512943098666C23.266244209402306,25.200404791901608,26.402246708514344,27.53352959489884,28.459940896213688,25.936471291777988C30.309458848269678,24.50098684527496,29.061932584125117,21.380045797667957,29.474343458864197,19.075430966177358C29.867223353062084,16.879958231042163,31.04930940155645,14.832781280354034,30.844379064929424,12.611867347056105C30.630318997549335,10.292010784909419,30.19988172906684,7.530926232917939,28.286462008522413,6.201873504688727C26.246534167100396,4.784948804936362,23.259572692002003,6.631808346814451,20.94348382504132,5.734750063692445C18.88279708366992,4.936613111075122,18.208818235330885,1.3754955059214227,16.000000000000004,1.4431301454703025C13.759203233158905,1.5117439767052168,12.955885429291557,4.639029113592617,11.20019030507448,6.033092469011816C9.851204735149725,7.104218841741246,8.301767473266564,7.773504079765553,6.853347511251576,8.705788042868116C4.86658491982369,9.984579381744416,2.2246257323867997,10.546363354296359,1.0254118954101408,12.582147983446998C-0.1713604191226772,14.61378788568602,-0.15023190127673147,17.269654535955688,0.46832135024945387,19.545004298130376C1.0815017692515192,21.800590081737663,2.909677029727601,23.45325064705063,4.456995862043543,25.205238627779742C5.948548089348636,26.894083564124887,7.282607605210012,28.945683214181845,9.414626868301276,29.674668212384965C11.524672971613665,30.396140096556135,13.887091110974634,29.865093883941785,16,29.15204952036341" fill="#3d3d3d" strokewidth="0"/>
</g>
<g id="SVGRepo_tracerCarrier" stroke-linecap="round" stroke-linejoin="round" stroke="#CCCCCC" stroke-width="5.12"/>
<g id="SVGRepo_iconCarrier"> <path style="fill:#CFF09E;" d="M441.189,296.771c-22.517,0-40.771-18.253-40.771-40.771s18.253-40.771,40.771-40.771 c0.085,0,0.169,0.006,0.256,0.006v-40.292c0,0-37.029-22.818-37.463-22.818H110.578c-0.434,0-40.023,25.405-40.023,25.405v37.705 c0.085,0,0.169-0.006,0.256-0.006c22.517,0,40.771,18.253,40.771,40.771s-18.253,40.771-40.771,40.771 c-0.085,0-0.169-0.006-0.256-0.006v40.292c0,0,37.029,22.818,37.463,22.818h293.404c0.434,0,40.023-25.405,40.023-25.405v-37.705 C441.358,296.765,441.274,296.771,441.189,296.771z"/> <g> <path style="fill:#507C5C;" d="M401.422,374.097H108.018c-4.281,0-4.281,0-26.324-13.504c-9.327-5.716-18.6-11.429-18.6-11.429 c-4.203-2.59-6.761-7.172-6.761-12.109v-40.292c0-7.854,6.367-14.222,14.222-14.222c0.1,0,0.255,0.003,0.393,0.006 c14.576-0.074,26.411-11.954,26.411-26.547c0-14.588-11.827-26.465-26.398-26.547c-8.036,0.242-14.629-6.228-14.629-14.217V177.53 c0-4.843,2.465-9.354,6.541-11.969c0,0,9.911-6.362,19.878-12.722c23.404-14.936,23.404-14.936,27.827-14.936h293.404 c4.281,0,4.281,0,26.324,13.504c9.327,5.716,18.6,11.429,18.6,11.429c4.203,2.59,6.761,7.172,6.761,12.109v40.292 c0,7.854-6.367,14.222-14.222,14.222c-0.1,0-0.255-0.003-0.393-0.006c-14.576,0.074-26.411,11.954-26.411,26.547 c0,14.588,11.827,26.465,26.398,26.547c8.044-0.24,14.629,6.228,14.629,14.217v37.706c0,4.843-2.465,9.354-6.541,11.969 c0,0-9.911,6.362-19.878,12.722C405.845,374.097,405.845,374.097,401.422,374.097z M111.846,345.653h285.605 c5.484-3.438,17.593-11.157,29.771-18.958v-17.5c-23.58-6.195-41.025-27.698-41.025-53.194s17.445-46.999,41.025-53.194v-19.915 c-11.072-6.81-21.985-13.487-27.068-16.543H114.549c-5.484,3.438-17.593,11.157-29.771,18.958v17.5 c23.58,6.195,41.025,27.698,41.025,53.194s-17.445,46.999-41.025,53.194v19.915C95.849,335.919,106.763,342.598,111.846,345.653z"/> <path style="fill:#507C5C;" d="M497.778,429.511H14.222C6.367,429.511,0,423.142,0,415.289V96.711 c0-7.854,6.367-14.222,14.222-14.222h483.556c7.855,0,14.222,6.369,14.222,14.222s-6.367,14.222-14.222,14.222H28.444v290.133 h455.111V214.756c0-7.854,6.367-14.222,14.222-14.222S512,206.902,512,214.756v200.533 C512,423.142,505.633,429.511,497.778,429.511z"/> <path style="fill:#507C5C;" d="M285.515,252.875c-4.291-2.968-12.002-6.049-22.942-9.163v-32.185 c4.491,0.741,7.896,2.913,10.133,6.465c1.536,2.5,2.48,5.481,2.807,8.859c0.141,1.458,1.367,2.571,2.832,2.571h13.365 c0.768,0,1.502-0.31,2.037-0.859s0.826-1.291,0.806-2.058c-0.242-9.375-3.406-17.087-9.404-22.919 c-5.386-5.238-12.974-8.437-22.578-9.527v-7.481c0-1.57-1.274-2.844-2.844-2.844h-7.309c-1.57,0-2.844,1.274-2.844,2.844v7.492 c-9.731,0.661-17.549,4.14-23.27,10.361c-6.165,6.713-9.291,14.434-9.291,22.953c0,9.54,2.988,17.124,8.868,22.529 c5.222,4.87,13.185,8.486,23.694,10.765v36.358c-6.034-1.058-10.132-3.671-12.474-7.933c-1.094-1.998-2.506-6.074-3.021-14.143 c-0.095-1.498-1.338-2.662-2.839-2.662h-13.497c-1.57,0-2.844,1.274-2.844,2.844c0,9.466,1.526,16.778,4.658,22.337 c5.495,9.872,15.585,15.613,30.016,17.087v10.86c0,1.57,1.274,2.844,2.844,2.844h7.309c1.57,0,2.844-1.274,2.844-2.844v-10.965 c8.441-1.168,15.137-3.318,19.937-6.407c9.761-6.322,14.669-16.91,14.588-31.452C297.098,266.18,293.203,258.199,285.515,252.875z M262.574,263.982c5.082,1.631,7.761,3.071,9.156,4.059c3.961,2.806,5.885,6.822,5.885,12.278c0,3.556-0.74,6.62-2.266,9.378 c-2.443,4.442-6.638,7.019-12.776,7.831V263.982z M236.498,226.503c0-3.588,1.23-6.999,3.75-10.406 c1.89-2.524,5.02-4.11,9.328-4.729v29.399c-3.649-1.072-6.605-2.569-8.961-4.526C237.844,233.892,236.498,230.706,236.498,226.503z "/> </g> </g>
</svg>