<!DOCTYPE svg PUBLIC "-//W3C//DTD SVG 1.1//EN" "http://www.w3.org/Graphics/SVG/1.1/DTD/svg11.dtd">
<!-- Uploaded to: SVG Repo, www.svgrepo.com, Transformed by: SVG Repo Mixer Tools -->
<svg width="800px" height="800px" viewBox="-12.48 -12.48 72.96 72.96" xmlns="http://www.w3.org/2000/svg" fill="#000000">
<g id="SVGRepo_bgCarrier" stroke-width="0">
<path transform="translate(-12.48, -12.48), scale(2.28)" d="M16,26.488100109621882C18.61922056696255,26.83997159237673,20.27057018314234,30.761397584841482,22.864009909105995,30.253263442543133C25.151338275899597,29.805105875517558,25.17177820921183,26.293503363889812,26.55773931683148,24.419516151930598C27.88902973082347,22.61945033658484,30.11747349377615,21.499688881319063,30.891650139327666,19.398921967202707C31.6857627971972,17.24405769001327,32.202371144197045,14.497541241460294,30.915049706007963,12.595737234398959C29.510270057138413,10.520408193800847,26.50220871479667,10.413774246235393,24.17696506440948,9.479087959312348C22.73969941416523,8.901345281152517,21.28245746605455,8.548535929360494,19.792510249960582,8.124771319236952C18.521380947981548,7.763241993062634,17.1528965721752,7.799419123078123,16,7.153429456055164C13.589201111207624,5.802613425357794,12.149632102856252,1.9872099175949929,9.40441449931212,2.304125584899346C7.150025991107297,2.5643785562917136,7.674412148022604,6.459073871347279,6.309548195146476,8.272122559381849C4.992186361339419,10.02207070580159,1.4921717787152902,10.518250127148455,1.5730226642108072,12.707136567931524C1.6657727357651528,15.218171206114022,6.285883070440185,15.646034049490222,6.673619997482925,18.128685375257312C7.1067539143017475,20.902010322732355,2.7794765912919353,23.190631437053632,3.628185249701245,25.866193035546058C4.329917106012349,28.078408957442917,7.652247182319563,28.4045606903697,9.970166637566049,28.52107799485981C12.115493654390155,28.628919413026587,13.871089362899275,26.202097872170793,16,26.488100109621882" fill="#e6c341" strokewidth="0"/>
</g>
<g id="SVGRepo_tracerCarrier" stroke-linecap="round" stroke-linejoin="round"/>
<g id="SVGRepo_iconCarrier"> <path d="M0 0h48v48H0z" fill="none"/> <g id="Shopicon"> <path d="M25.662,19.651C26.402,19.877,27.187,20,28,20c4.418,0,8-3.582,8-8s-3.582-8-8-8c-2.212,0-4.214,0.898-5.662,2.349 C21.598,6.123,20.814,6,20,6c-4.418,0-8,3.582-8,8s3.582,8,8,8C22.212,22,24.214,21.102,25.662,19.651z M28,8c2.206,0,4,1.794,4,4 s-1.794,4-4,4c-2.206,0-4-1.794-4-4S25.795,8,28,8z M16,14c0-2.206,1.794-4,4-4c0.088,0,0.169,0.02,0.256,0.026 C20.095,10.658,20,11.317,20,12c0,2.079,0.8,3.967,2.1,5.389C21.488,17.77,20.773,18,20,18C17.795,18,16,16.206,16,14z"/> <path d="M30,24c-5.952,0-10.813,1.913-12.9,4.777c-1.05-0.914-1.862-1.813-2.3-2.379c-1.986-2.643-5.754-3.181-8.4-1.198 c-2.646,1.984-3.185,5.753-1.199,8.4C5.519,34.025,13.131,44,24,44h20V32C44,27.439,37.981,24,30,24z M8.4,31.2 c-0.662-0.882-0.482-2.139,0.397-2.8c0.36-0.27,0.783-0.399,1.201-0.399c0.608,0,1.207,0.274,1.596,0.791 C11.647,28.864,17.026,36,24,36h8v-2l0,0v-2h-8c-1.229,0-2.46-0.385-3.61-0.962C21.518,29.573,25.025,28,30,28 c6.104,0,10,2.369,10,4v8h-2H24C15.107,40,8.669,31.559,8.4,31.2z"/> </g> </g>
</svg>